<svg width="36" height="36" viewBox="0 0 36 36" fill="none" xmlns="http://www.w3.org/2000/svg">
<g clip-path="url(#clip0_2_14)">
<path d="M24.4525 20.102C24.0678 19.2926 23.4972 18.6157 22.7011 18.0186C22.1172 17.5807 21.4537 17.2092 20.5912 16.8642C19.5828 16.4395 18.5611 16.1211 17.6853 15.8558C17.3005 15.7364 16.8759 15.6036 16.3584 15.4311C16.093 15.3383 15.9736 15.2055 15.9471 14.9933C15.9337 14.9402 15.9337 14.8871 15.9337 14.8208C15.9337 13.7327 15.9337 12.6579 15.9337 11.5698C15.9337 11.5035 15.9471 11.4238 15.9603 11.331C15.9868 11.2248 16.0399 11.1983 16.0797 11.1717C16.1461 11.1452 16.2256 11.1452 16.345 11.1717C16.69 11.2381 17.035 11.3708 17.3934 11.5433C17.7516 11.729 18.1099 11.9413 18.4549 12.1536C18.5743 12.2333 18.7071 12.3129 18.8397 12.3792C19.1449 12.565 19.5562 12.7906 20.0206 12.9498C20.6311 13.1621 21.2016 13.2417 21.7722 13.1886C22.1968 13.1488 22.6081 13.0825 22.9797 12.9763C23.1655 12.9233 23.3646 12.8569 23.5371 12.7242C23.736 12.565 23.8156 12.3129 23.736 12.0608C23.6565 11.8219 23.4441 11.6494 23.1921 11.6361C23.1787 11.6361 23.1655 11.6361 23.139 11.6361C22.9797 11.6361 22.8337 11.676 22.7143 11.7025C22.3296 11.8086 21.9846 11.875 21.6528 11.8883C21.3343 11.9015 21.0025 11.875 20.6575 11.7821C20.2462 11.676 19.8747 11.4769 19.5562 11.3044C19.344 11.185 19.1449 11.0523 18.9325 10.9329C18.7468 10.84 18.5743 10.7206 18.3886 10.6144C17.9905 10.3756 17.619 10.2031 17.2606 10.0836C16.7962 9.92442 16.345 9.81827 15.9072 9.77846C15.6949 9.76518 15.4693 9.75192 15.2305 9.79172C14.9386 9.8448 14.7528 10.0306 14.6997 10.3225C14.6732 10.4552 14.6599 10.5879 14.6599 10.7206C14.6599 11.4106 14.6599 12.0873 14.6599 12.7773V14.1573C14.6599 14.29 14.6599 14.4227 14.6201 14.5288C14.5936 14.6085 14.567 14.635 14.4874 14.635C14.3945 14.635 14.3149 14.6085 14.2088 14.5554C13.5188 14.2104 12.9614 13.8256 12.5103 13.3479C12.2051 13.0161 11.953 12.6579 11.7938 12.2598C11.6345 11.8883 11.5284 11.4902 11.4753 11.039C11.4222 10.5879 11.4222 10.15 11.5018 9.73865C11.5814 9.23442 11.7407 8.75672 11.9928 8.30558C12.2317 7.86768 12.5368 7.48287 12.9084 7.13787C13.187 6.88577 13.5188 6.67346 13.8638 6.50096C14.3149 6.28865 14.8059 6.16922 15.3234 6.15596C15.5356 6.15596 15.7612 6.18249 15.9736 6.19577C16.2522 6.2223 16.5574 6.30192 16.8493 6.40806C17.3005 6.5673 17.7118 6.80615 18.0966 7.03172C18.2559 7.12461 18.415 7.21749 18.5743 7.32365C18.7866 7.45634 19.0122 7.58903 19.2378 7.70846C19.9543 8.10653 20.6575 8.30558 21.3741 8.26577C21.759 8.25249 22.0906 8.18615 22.3825 8.06672C22.5021 8.02692 22.648 7.96058 22.7409 7.82787C22.8735 7.64211 22.9 7.41653 22.794 7.20422C22.7011 6.99192 22.5153 6.85922 22.2765 6.84596C22.0906 6.83268 21.9181 6.87249 21.7722 6.9123C21.52 6.97865 21.268 6.99192 21.0159 6.96537C20.6311 6.92556 20.2596 6.80615 19.8216 6.5673C19.5031 6.3948 19.1847 6.19577 18.9061 6.02327C18.3621 5.69153 17.9374 5.46596 17.4996 5.28018C16.9687 5.06787 16.3849 4.93518 15.6816 4.86884C15.3631 4.8423 15.0315 4.86884 14.7661 4.90865C14.0097 5.00153 13.2799 5.29346 12.6032 5.75787C12.1786 6.03653 11.807 6.38153 11.5018 6.76634C11.117 7.23077 10.8517 7.66865 10.6526 8.1198C10.3076 8.91596 10.1484 9.68556 10.1617 10.4685C10.1617 10.9727 10.228 11.4371 10.3342 11.9015C10.5863 12.9631 11.1303 13.8654 11.9663 14.6217C12.5103 15.0995 13.1605 15.5241 13.9699 15.8955C14.8192 16.2936 15.7347 16.5989 16.4778 16.8377C16.8493 16.9571 17.2075 17.0766 17.5791 17.196C18.0966 17.3551 18.6009 17.5276 19.1184 17.6869C19.888 17.9523 20.5515 18.231 21.1485 18.5627C21.7722 18.9077 22.2366 19.266 22.6215 19.6641C23.0196 20.0886 23.2981 20.553 23.4972 21.1104C23.6431 21.535 23.736 22.0126 23.7625 22.5567C23.7759 22.9017 23.7625 23.2202 23.7096 23.4989C23.5768 24.3216 23.2185 25.0645 22.6347 25.7148C22.2499 26.1394 21.7855 26.4844 21.2415 26.7366C20.578 27.055 19.8481 27.2275 19.0786 27.2275C19.0255 27.2142 18.9325 27.2275 18.8265 27.2142L18.7468 27.201C18.5611 27.1877 18.3753 27.1745 18.1896 27.1479C17.8446 27.108 17.5261 27.0019 17.2209 26.9091C16.8625 26.7895 16.5441 26.6569 16.2522 26.4844C16.0134 26.3517 15.9072 26.1527 15.9072 25.8476C15.9072 25.1841 15.9072 24.5205 15.9072 23.8704V22.3842C15.9072 22.3046 15.9205 22.225 15.9337 22.1586C15.9603 22.026 16.0399 21.9595 16.1461 21.933C16.2256 21.9198 16.2921 21.9066 16.3716 21.9066C16.6105 21.9066 16.8493 21.9066 17.1015 21.9066H17.9374C18.1365 21.9066 18.3355 21.9066 18.5478 21.9066C19.105 21.9066 19.6756 21.933 20.2197 21.8801C20.3125 21.8801 20.4187 21.8535 20.5249 21.827C20.7637 21.7473 20.923 21.535 20.923 21.2695C20.9362 21.0042 20.8036 20.7919 20.5647 20.6857C20.3922 20.6194 20.2197 20.6061 20.0871 20.6061H16.7431C16.5706 20.6061 16.4115 20.6061 16.2522 20.5929C16.0531 20.5795 15.9736 20.5132 15.9337 20.3275C15.9205 20.2479 15.9072 20.1682 15.9072 20.0886V19.3455C15.9072 18.9342 15.9072 18.5229 15.9072 18.1116C15.9072 17.9391 15.894 17.793 15.8674 17.647C15.8143 17.3551 15.5755 17.1429 15.2836 17.1429C14.9917 17.1429 14.7661 17.342 14.6864 17.6339C14.6599 17.7401 14.6467 17.8461 14.6467 17.9655C14.5936 19.3058 14.5936 20.6726 14.5936 22.026C14.5936 22.1321 14.5936 22.2383 14.5936 22.3445C14.5936 22.4505 14.5936 22.5701 14.5936 22.6761C14.5936 23.0079 14.5936 23.3396 14.5803 23.658L14.567 24.4277C14.567 24.7727 14.567 25.1176 14.567 25.4626C14.567 25.7016 14.567 25.9404 14.5803 26.1792C14.5803 26.3916 14.5936 26.6038 14.5936 26.8161C14.5936 27.1744 14.5936 27.5326 14.5936 27.891V28.8861C14.5936 29.3373 14.5936 29.8017 14.5936 30.2529C14.5936 30.3855 14.6068 30.5051 14.6467 30.6377C14.6864 30.8102 14.8059 30.9429 14.9784 31.0225C15.058 31.0623 15.1375 31.0755 15.2305 31.0755C15.3234 31.0755 15.4296 31.0491 15.5091 31.0092C15.6816 30.9164 15.7878 30.757 15.8275 30.558C15.8541 30.412 15.8674 30.2396 15.8674 30.0539C15.8674 29.7089 15.8674 29.3639 15.8674 29.0321C15.8674 28.7933 15.8674 28.5411 15.8674 28.3023C15.8674 28.2227 15.8806 28.143 15.894 28.0635C15.9072 28.0104 15.9205 27.9573 15.9736 27.9308C16.0134 27.9042 16.0531 27.9042 16.1196 27.9176C16.2124 27.9441 16.3186 27.9705 16.4512 28.0236C17.2075 28.3023 17.818 28.4483 18.415 28.5014C18.8397 28.5411 19.2643 28.5411 19.6756 28.5014C20.2065 28.4616 20.724 28.3421 21.2812 28.1298C22.1703 27.798 22.9531 27.2673 23.6034 26.5375C23.9749 26.1261 24.2934 25.6485 24.5455 25.1177C24.8506 24.4676 25.0099 23.7377 25.0365 22.9151C25.0497 22.5701 25.0231 22.2382 24.97 21.8401C24.8772 21.2298 24.718 20.646 24.4525 20.102Z" fill="#FFFEF4"/>
<path d="M14.2051 25.1421C14.1653 25.0359 14.0856 24.9297 13.9795 24.8369C13.661 24.5582 13.3028 24.3459 12.8649 24.1734C12.228 23.9213 11.5778 23.8284 10.9276 23.8947C10.4897 23.9478 10.0783 24.0806 9.69352 24.3062C9.52102 24.4122 9.3618 24.5052 9.24237 24.6644C9.13621 24.8103 9.09642 24.9563 9.12295 25.1156C9.16276 25.3412 9.29545 25.5137 9.5343 25.6065C9.69352 25.6728 9.8793 25.6596 10.0651 25.5668C10.1314 25.5402 10.211 25.5003 10.2774 25.4606C10.3437 25.4207 10.4101 25.3943 10.4764 25.3677C10.8347 25.1952 11.2062 25.1421 11.591 25.1819C12.0422 25.235 12.4933 25.3809 12.918 25.6596L12.971 25.6994C13.0905 25.7657 13.2099 25.8453 13.3293 25.9118C13.4355 25.9647 13.5416 26.0046 13.6478 26.0046C13.7008 26.0046 13.7406 26.0046 13.7937 25.9913C14.0724 25.925 14.2714 25.6728 14.2847 25.3943V25.3677L14.2714 25.3013C14.2316 25.2218 14.2183 25.1819 14.2051 25.1421Z" fill="#FFFEF4"/>
<path d="M17.2463 -0.0022583C7.73218 -0.0022583 -0.00378418 7.7337 -0.00378418 17.2477C-0.00378418 26.7617 7.73218 34.4977 17.2463 34.4977C26.7603 34.4977 34.4963 26.7617 34.4963 17.2477C34.4963 7.7337 26.7603 -0.0022583 17.2463 -0.0022583ZM17.2463 33.1708C8.46198 33.1708 1.32314 26.032 1.32314 17.2477C1.32314 8.46351 8.46198 1.32467 17.2463 1.32467C26.0304 1.32467 33.1692 8.46351 33.1692 17.2477C33.1692 26.032 26.0304 33.1708 17.2463 33.1708Z" fill="#FFFEF4"/>
</g>
<defs>
<clipPath id="clip0_2_14">
<rect width="36" height="36" fill="white"/>
</clipPath>
</defs>
</svg>
