<svg width="36" height="36" viewBox="0 0 36 36" fill="none" xmlns="http://www.w3.org/2000/svg">
<g clip-path="url(#clip0_2_24)">
<path d="M25.5804 7.86933L23.4076 1.21216L17.9062 2.99264L21.3741 13.6212L32.595 13.6513L32.6072 7.88744L25.5804 7.86933Z" fill="#FFFEF4"/>
<path d="M12.2608 1.21216L10.0315 7.87622H2.82788V13.6513H14.3474L17.9057 2.9961L12.2608 1.21216Z" fill="#FFFEF4"/>
<path d="M2.92908 13.6577L-0.563965 18.353L5.27228 22.4948L3.04097 29.1969L8.69074 30.9911L12.2522 20.2748L2.92287 13.6516L2.92908 13.6577Z" fill="#FFFEF4"/>
<path d="M35.9997 18.353L32.6111 13.6516L23.5605 20.2748L27.0156 30.9911L32.4965 29.1969L30.3318 22.4948L35.9937 18.353H35.9997Z" fill="#FFFEF4"/>
<path d="M17.718 24.583L8.48291 31.1967L11.9407 35.8914L17.718 31.7554L23.4954 35.8914L26.9532 31.1967L17.718 24.583Z" fill="#FFFEF4"/>
</g>
<defs>
<clipPath id="clip0_2_24">
<rect width="36" height="36" fill="white"/>
</clipPath>
</defs>
</svg>
