<svg width="36" height="36" viewBox="0 0 36 36" fill="none" xmlns="http://www.w3.org/2000/svg">
<g clip-path="url(#clip0_2_20)">
<path d="M30.9 12H30.6V12.6H31.2V12H30.9ZM31.8 14.4V15H31.95V14.4H31.8ZM32.1 16.05H31.8V16.65H32.1V16.05ZM31.8 17.7V18.3H32.1V17.7H31.8ZM28.65 7.8L28.5 7.5L28.2 7.2V7.8H28.65ZM29.4 9.6V10.2H30V9.6H29.4ZM30 11.1H29.4V12H30V11.25V11.1ZM30.6 13.5V14.25H31.2V13.5H30.6ZM30 12.75H29.4V13.5H30V12.9V12.75ZM30.6 15.15V15.9H31.2V15H30.6V15.15ZM30 14.4H29.4V15H30V14.4ZM30.6 16.8V17.4H31.2V16.8H30.6ZM30 16.05H29.4V16.65H30V16.05ZM30.6 18.45V19.05H31.2V18.45H30.6ZM30 17.7H29.4V18.3H30V17.7ZM30.6 20.1V20.7H31.2V20.1H30.6ZM30 19.2H29.4V19.8H30V19.2ZM30.6 21.6V22.35H31.2V21.6H30.6ZM30 21H29.4V21.45H30V21ZM30.6 23.25V23.85H30.75C30.8562 23.6532 30.9562 23.4531 31.05 23.25H30.6ZM30 22.5H29.4V23.1H30V22.5ZM30 24H29.4V24.75H30V24ZM29.4 26.25L29.7 25.65H29.4V26.25ZM27 6.3V6.9H27.6V6.6L27.3 6.3H27ZM28.2 8.7V9.3H28.8V8.7H28.2ZM27.6 7.95H27V8.55H27.6V7.95ZM28.2 10.5V10.8H28.8V10.5H28.2ZM27.6 9.6H27V10.2H27.6V9.6ZM28.2 12V12.6H28.8V12H28.2ZM27.6 11.1H27V12H27.6V11.25V11.1ZM28.2 13.5V14.25H28.8V13.5H28.2ZM27.6 12.75H27V13.5H27.6V12.9V12.75ZM28.2 15.15V15.9H28.8V15H28.2V15.15ZM27.6 14.4H27V15H27.6V14.4ZM28.2 16.8V17.4H28.8V16.8H28.2ZM27.6 16.05H27V16.65H27.6V16.05ZM28.2 18.45V19.05H28.8V18.45H28.2ZM27.6 17.7H27V18.3H27.6V17.7ZM28.2 20.1V20.7H28.8V20.1H28.2ZM27.6 19.2H27V19.8H27.6V19.2ZM28.2 21.6V22.35H28.8V21.6H28.2ZM27.6 21H27V21.45H27.6V21ZM28.2 23.25V23.85H28.8V23.25H28.2ZM27.6 22.5H27V23.1H27.6V22.5ZM28.2 24.9V25.5H28.8V24.9H28.2ZM27.6 24H27V24.75H27.6V24ZM28.2 26.55V27.15H28.8V26.55H28.2ZM27.6 25.65H27V26.25H27.6V25.65ZM27.6 27.3H27V27.9H27.6V27.3ZM23.7 3.9H23.4V4.5H24V3.9H23.7ZM25.8 5.55V6H26.4V5.4H25.8V5.55ZM25.2 4.65H24.6V5.25H25.2V4.65ZM25.8 7.2V7.8H26.4V7.2H25.8ZM25.2 6.3H24.6V6.9H25.2V6.3ZM25.8 8.7V9.3H26.4V8.7H25.8ZM25.2 7.95H24.6V8.55H25.2V7.95ZM25.8 10.5V10.8H26.4V10.5H25.8ZM25.2 9.6H24.6V10.2H25.2V9.6ZM25.8 12V12.6H26.4V12H25.8ZM25.2 11.1H24.6V12H25.2V11.25V11.1ZM25.8 13.5V14.25H26.4V13.5H25.8ZM25.2 12.75H24.6V13.5H25.2V12.9V12.75ZM25.8 15.15V15.9H26.4V15H25.8V15.15ZM25.2 14.4H24.6V15H25.2V14.4ZM25.8 16.8V17.4H26.4V16.8H25.8ZM25.2 16.05H24.6V16.65H25.2V16.05ZM25.8 18.45V19.05H26.4V18.45H25.8ZM25.2 17.7H24.6V18.3H25.2V17.7ZM25.8 20.1V20.7H26.4V20.1H25.8ZM25.2 19.2H24.6V19.8H25.2V19.2ZM25.8 21.6V22.35H26.4V21.6H25.8ZM25.2 21H24.6V21.45H25.2V21ZM25.8 23.25V23.85H26.4V23.25H25.8ZM25.2 22.5H24.6V23.1H25.2V22.5ZM25.8 24.9V25.5H26.4V24.9H25.8ZM25.2 24H24.6V24.75H25.2V24ZM25.8 26.55V27.15H26.4V26.55H25.8ZM25.2 25.65H24.6V26.25H25.2V25.65ZM25.8 28.2V28.8H26.4V28.2H25.8ZM25.2 27.3H24.6V27.9H25.2V27.3ZM25.8 30L25.95 29.7H25.8V29.85V30ZM25.2 28.95H24.6V29.55H25.2V28.95ZM24.6 30.75L24.75 30.6H24.6V30.75ZM22.2 3.75H22.8V3.3L22.2 3.15V3.75ZM21.45 3L21.15 2.85H21H21.6L21.45 3ZM23.4 5.55V6H24V5.4H23.4V5.55ZM22.8 4.65H22.2V5.25H22.8V4.65ZM23.4 7.2V7.8H24V7.2H23.4ZM22.8 6.3H22.2V6.9H22.8V6.3ZM23.4 8.7V9.3H24V8.7H23.4ZM22.8 7.95H22.2V8.55H22.8V7.95ZM23.4 10.5V10.8H24V10.5H23.4ZM22.8 9.6H22.2V10.2H22.8V9.6ZM23.4 12V12.6H24V12H23.4ZM22.8 11.1H22.2V12H22.8V11.25V11.1ZM23.4 13.5V14.25H24V13.5H23.4ZM22.8 12.75H22.2V13.5H22.8V12.9V12.75ZM23.4 15.15V15.9H24V15H23.4V15.15ZM22.8 14.4H22.2V15H22.8V14.4ZM23.4 16.8V17.4H24V16.8H23.4ZM22.8 16.05H22.2V16.65H22.8V16.05ZM23.4 18.45V19.05H24V18.45H23.4ZM22.8 17.7H22.2V18.3H22.8V17.7ZM23.4 20.1V20.7H24V20.1H23.4ZM22.8 19.2H22.2V19.8H22.8V19.2ZM23.4 21.6V22.35H24V21.6H23.4ZM22.8 21H22.2V21.45H22.8V21ZM23.4 23.25V23.85H24V23.25H23.4ZM22.8 22.5H22.2V23.1H22.8V22.5ZM23.4 24.9V25.5H24V24.9H23.4ZM22.8 24H22.2V24.75H22.8V24ZM23.4 26.55V27.15H24V26.55H23.4ZM22.8 25.65H22.2V26.25H22.8V25.65ZM23.4 28.2V28.8H24V28.2H23.4ZM22.8 27.3H22.2V27.9H22.8V27.3ZM23.4 29.7V30.3H24V29.7H23.4ZM22.8 28.95H22.2V29.55H22.8V28.95ZM22.8 30.6H22.2V31.2H22.8V30.6ZM21 3.9V4.5H21.6V3.9H20.85H21ZM20.25 3H19.65V3.75H20.25V3ZM21 5.55V6H21.6V5.4H20.85L21 5.55ZM20.25 4.65H19.65V5.25H20.25V4.65ZM21 7.2V7.8H21.6V7.2H20.85H21ZM20.25 6.3H19.65V6.9H20.25V6.3ZM21 8.7V9.3H21.6V8.7H20.85H21ZM20.25 7.95H19.65V8.55H20.25V7.95ZM21 10.5V10.8H21.6V10.5H20.85H21ZM20.25 9.6H19.65V10.2H20.25V9.6ZM21 12V12.6H21.6V12H20.85H21ZM20.25 11.1H19.65V12H20.25V11.25V11.1ZM21 13.5V14.25H21.6V13.5H20.85H21ZM20.25 12.75H19.65V13.5H20.25V12.9V12.75ZM21 15.15V15.9H21.6V15H20.85L21 15.15ZM20.25 14.4H19.65V15H20.25V14.4ZM21 16.8V17.4H21.6V16.8H20.85H21ZM20.25 16.05H19.65V16.65H20.25V16.05ZM21 18.45V19.05H21.6V18.45H20.85H21ZM20.25 17.7H19.65V18.3H20.25V17.7ZM21 20.1V20.7H21.6V20.1H20.85H21ZM20.25 19.2H19.65V19.8H20.25V19.2ZM21 21.6V22.35H21.6V21.6H20.85H21ZM20.25 21H19.65V21.45H20.25V21ZM21 23.25V23.85H21.6V23.25H20.85H21ZM20.25 22.5H19.65V23.1H20.25V22.5ZM21 24.9V25.5H21.6V24.9H20.85H21ZM20.25 24H19.65V24.75H20.25V24ZM21 26.55V27.15H21.6V26.55H20.85H21ZM20.25 25.65H19.65V26.25H20.25V25.65ZM21 28.2V28.8H21.6V28.2H20.85H21ZM20.25 27.3H19.65V27.9H20.25V27.3ZM21 29.7V30.3H21.6V29.7H20.85H21ZM20.25 28.95H19.65V29.55H20.25V28.95ZM21 31.5V31.8H21.6V31.5H20.85H21ZM20.25 30.6H19.65V31.2H20.25V30.6ZM19.65 32.55L20.25 32.4V32.25H19.65V32.55ZM18.45 2.25V3H19.05V2.55H18.45V2.25ZM18.45 3.9V4.5H19.05V3.9H18.45ZM18 3H17.25V3.75H17.85V3H18ZM18.45 5.55V6H19.05V5.4H18.45V5.55ZM18 4.65H17.25V5.25H17.85V4.65H18ZM18.45 7.2V7.8H19.05V7.2H18.45ZM18 6.3H17.25V6.9H17.85V6.3H18ZM18.45 8.7V9.3H19.05V8.7H18.45ZM18 7.95H17.25V8.55H17.85V7.95H18ZM18.45 10.5V10.8H19.05V10.5H18.45ZM18 9.6H17.25V10.2H17.85V9.6H18ZM18.45 12V12.6H19.05V12H18.45ZM18 11.1H17.25V12H17.85V11.25L18 11.1ZM18.45 13.5V14.25H19.05V13.5H18.45ZM18 12.75H17.25V13.5H17.85V12.9L18 12.75ZM18.45 15.15V15.9H19.05V15H18.45V15.15ZM18 14.4H17.25V15H17.85V14.4H18ZM18.45 16.8V17.4H19.05V16.8H18.45ZM18 16.05H17.25V16.65H17.85V16.05H18ZM18.45 18.45V19.05H19.05V18.45H18.45ZM18 17.7H17.25V18.3H17.85V17.7H18ZM18.45 20.1V20.7H19.05V20.1H18.45ZM18 19.2H17.25V19.8H17.85V19.2H18ZM18.45 21.6V22.35H19.05V21.6H18.45ZM18 21H17.25V21.45H17.85V21H18ZM18.45 23.25V23.85H19.05V23.25H18.45ZM18 22.5H17.25V23.1H17.85V22.5H18ZM18.45 24.9V25.5H19.05V24.9H18.45ZM18 24H17.25V24.75H17.85V24H18ZM18.45 26.55V27.15H19.05V26.55H18.45ZM18 25.65H17.25V26.25H17.85V25.65H18ZM18.45 28.2V28.8H19.05V28.2H18.45ZM18 27.3H17.25V27.9H17.85V27.3H18ZM18.45 29.7V30.3H19.05V29.7H18.45ZM18 28.95H17.25V29.55H17.85V28.95H18ZM18.45 31.5V31.8H19.05V31.5H18.45ZM18 30.6H17.25V31.2H17.85V30.6H18ZM17.25 32.7H17.85V32.25H17.25V32.7ZM16.05 2.25V3H16.65V2.4H16.05V2.25ZM16.05 3.9V4.5H16.65V3.9H16.05ZM15.45 3H15V3.75H15.6V3H15.45ZM16.05 5.55V6H16.65V5.4H16.05V5.55ZM15.45 4.65H15V5.25H15.6V4.65H15.45ZM16.05 7.2V7.8H16.65V7.2H16.05ZM15.45 6.3H15V6.9H15.6V6.3H15.45ZM16.05 8.7V9.3H16.65V8.7H16.05ZM15.45 7.95H15V8.55H15.6V7.95H15.45ZM16.05 10.5V10.8H16.65V10.5H16.05ZM15.45 9.6H15V10.2H15.6V9.6H15.45ZM16.05 12V12.6H16.65V12H16.05ZM15.45 11.1H15V12H15.6V11.25L15.45 11.1ZM16.05 13.5V14.25H16.65V13.5H16.05ZM15.45 12.75H15V13.5H15.6V12.9L15.45 12.75ZM16.05 15.15V15.9H16.65V15H16.05V15.15ZM15.45 14.4H15V15H15.6V14.4H15.45ZM16.05 16.8V17.4H16.65V16.8H16.05ZM15.45 16.05H15V16.65H15.6V16.05H15.45ZM16.05 18.45V19.05H16.65V18.45H16.05ZM15.45 17.7H15V18.3H15.6V17.7H15.45ZM16.05 20.1V20.7H16.65V20.1H16.05ZM15.45 19.2H15V19.8H15.6V19.2H15.45ZM16.05 21.6V22.35H16.65V21.6H16.05ZM15.45 21H15V21.45H15.6V21H15.45ZM16.05 23.25V23.85H16.65V23.25H16.05ZM15.45 22.5H15V23.1H15.6V22.5H15.45ZM16.05 24.9V25.5H16.65V24.9H16.05ZM15.45 24H15V24.75H15.6V24H15.45ZM16.05 26.55V27.15H16.65V26.55H16.05ZM15.45 25.65H15V26.25H15.6V25.65H15.45ZM16.05 28.2V28.8H16.65V28.2H16.05ZM15.45 27.3H15V27.9H15.6V27.3H15.45ZM16.05 29.7V30.3H16.65V29.7H16.05ZM15.45 28.95H15V29.55H15.6V28.95H15.45ZM16.05 31.5V31.8H16.65V31.5H16.05ZM15.45 30.6H15V31.2H15.6V30.6H15.45ZM14.85 32.7H15.45V32.1H15V32.55L14.85 32.7ZM13.65 2.55V2.85H14.25V2.4H13.95L13.65 2.55ZM13.65 3.9V4.5H14.25V3.9H13.65ZM13.05 3H12.45V3.75H13.05V3ZM13.65 5.55V6H14.25V5.4H13.65V5.55ZM13.05 4.65H12.45V5.25H13.05V4.65ZM13.65 7.2V7.8H14.25V7.2H13.65ZM13.05 6.3H12.45V6.9H13.05V6.3ZM13.65 8.7V9.3H14.25V8.7H13.65ZM13.05 7.95H12.45V8.55H13.05V7.95ZM13.65 10.5V10.8H14.25V10.5H13.65ZM13.05 9.6H12.45V10.2H13.05V9.6ZM13.65 12V12.6H14.25V12H13.65ZM13.05 11.1H12.45V12H13.05V11.25V11.1ZM13.65 13.5V14.25H14.25V13.5H13.65ZM13.05 12.75H12.45V13.5H13.05V12.9V12.75ZM13.65 15.15V15.9H14.25V15H13.65V15.15ZM13.05 14.4H12.45V15H13.05V14.4ZM13.65 16.8V17.4H14.25V16.8H13.65ZM13.05 16.05H12.45V16.65H13.05V16.05ZM13.65 18.45V19.05H14.25V18.45H13.65ZM13.05 17.7H12.45V18.3H13.05V17.7ZM13.65 20.1V20.7H14.25V20.1H13.65ZM13.05 19.2H12.45V19.8H13.05V19.2ZM13.65 21.6V22.35H14.25V21.6H13.65ZM13.05 21H12.45V21.45H13.05V21ZM13.65 23.25V23.85H14.25V23.25H13.65ZM13.05 22.5H12.45V23.1H13.05V22.5ZM13.65 24.9V25.5H14.25V24.9H13.65ZM13.05 24H12.45V24.75H13.05V24ZM13.65 26.55V27.15H14.25V26.55H13.65ZM13.05 25.65H12.45V26.25H13.05V25.65ZM13.65 28.2V28.8H14.25V28.2H13.65ZM13.05 27.3H12.45V27.9H13.05V27.3ZM13.65 29.7V30.3H14.25V29.7H13.65ZM13.05 28.95H12.45V29.55H13.05V28.95ZM13.65 31.5V31.8H14.25V31.5H13.65ZM13.05 30.6H12.45V31.2H13.05V30.6ZM11.25 3.9V4.5H11.85V3.9H11.25ZM11.25 5.55V6H11.85V5.4H11.25V5.55ZM10.5 4.65H10.05V5.25H10.5V4.65ZM9 4.35V4.5H9.6V4.2H9V4.35ZM11.25 7.2V7.8H11.85V7.2H11.25ZM10.5 6.3H10.05V6.9H10.5V6.3ZM11.25 8.7V9.3H11.85V8.7H11.25ZM10.5 7.95H10.05V8.55H10.5V7.95ZM11.25 10.5V10.8H11.85V10.5H11.25ZM10.5 9.6H10.05V10.2H10.5V9.6ZM11.25 12V12.6H11.85V12H11.25ZM10.5 11.1H10.05V12H10.5V11.25V11.1ZM11.25 13.5V14.25H11.85V13.5H11.25ZM10.5 12.75H10.05V13.5H10.5V12.9V12.75ZM11.25 15.15V15.9H11.85V15H11.25V15.15ZM10.5 14.4H10.05V15H10.5V14.4ZM11.25 16.8V17.4H11.85V16.8H11.25ZM10.5 16.05H10.05V16.65H10.5V16.05ZM11.25 18.45V19.05H11.85V18.45H11.25ZM10.5 17.7H10.05V18.3H10.5V17.7ZM11.25 20.1V20.7H11.85V20.1H11.25ZM10.5 19.2H10.05V19.8H10.5V19.2ZM11.25 21.6V22.35H11.85V21.6H11.25ZM10.5 21H10.05V21.45H10.5V21ZM11.25 23.25V23.85H11.85V23.25H11.25ZM10.5 22.5H10.05V23.1H10.5V22.5ZM11.25 24.9V25.5H11.85V24.9H11.25ZM10.5 24H10.05V24.75H10.5V24ZM11.25 26.55V27.15H11.85V26.55H11.25ZM10.5 25.65H10.05V26.25H10.5V25.65ZM11.25 28.2V28.8H11.85V28.2H11.25ZM10.5 27.3H10.05V27.9H10.5V27.3ZM11.25 29.7V30.3H11.85V29.7H11.25ZM10.5 28.95H10.05V29.55H10.5V28.95ZM11.25 31.5V31.65L11.55 31.8H11.85V31.5H11.25ZM10.05 31.2H10.65V30.6H10.05V31.2ZM8.85 5.55V6H9.45V5.4H8.85V5.55ZM8.25 5.25V4.95L7.65 5.25H8.25ZM8.85 7.2V7.8H9.45V7.2H8.85ZM8.25 6.3H7.5V6.9H8.1V6.3H8.25ZM8.85 8.7V9.3H9.45V8.7H8.85ZM8.25 7.95H7.5V8.55H8.1V7.95H8.25ZM8.85 10.5V10.8H9.45V10.5H8.85ZM8.25 9.6H7.5V10.2H8.1V9.6H8.25ZM8.85 12V12.6H9.45V12H8.85ZM8.25 11.1H7.5V12H8.1V11.25L8.25 11.1ZM8.85 13.5V14.25H9.45V13.5H8.85ZM8.25 12.75H7.5V13.5H8.1V12.9L8.25 12.75ZM8.85 15.15V15.9H9.45V15H8.85V15.15ZM8.25 14.4H7.5V15H8.1V14.4H8.25ZM8.85 16.8V17.4H9.45V16.8H8.85ZM8.25 16.05H7.5V16.65H8.1V16.05H8.25ZM8.85 18.45V19.05H9.45V18.45H8.85ZM8.25 17.7H7.5V18.3H8.1V17.7H8.25ZM8.85 20.1V20.7H9.45V20.1H8.85ZM8.25 19.2H7.5V19.8H8.1V19.2H8.25ZM8.85 21.6V22.35H9.45V21.6H8.85ZM8.25 21H7.5V21.45H8.1V21H8.25ZM8.85 23.25V23.85H9.45V23.25H8.85ZM8.25 22.5H7.5V23.1H8.1V22.5H8.25ZM8.85 24.9V25.5H9.45V24.9H8.85ZM8.25 24H7.5V24.75H8.1V24H8.25ZM8.85 26.55V27.15H9.45V26.55H8.85ZM8.25 25.65H7.5V26.25H8.1V25.65H8.25ZM8.85 28.2V28.8H9.45V28.2H8.85ZM8.25 27.3H7.5V27.9H8.1V27.3H8.25ZM8.85 29.7V30.3H9.45V29.7H8.85ZM8.25 28.95H7.5V29.55H8.1V28.95H8.25ZM6.3 7.2V7.8H7.05V7.2H6.3ZM6.6 6H7.05L6.75 6.3L6.6 6ZM6.3 8.7V9.3H7.05V8.7H6.3ZM4.2 9L3.9 9.3H4.5V8.7V9H4.2ZM5.85 7.95H5.1V8.55H6V7.95H5.85ZM6.3 10.5V10.8H7.05V10.5H6.3ZM5.85 9.6H5.1V10.2H6V9.6H5.85ZM6.3 12V12.6H7.05V12H6.3ZM5.85 11.1H5.1V12H6V11.25L5.85 11.1ZM6.3 13.5V14.25H7.05V13.5H6.3ZM5.85 12.75H5.1V13.5H6V12.9L5.85 12.75ZM6.3 15.15V15.9H7.05V15H6.3V15.15ZM5.85 14.4H5.1V15H6V14.4H5.85ZM6.3 16.8V17.4H7.05V16.8H6.3ZM5.85 16.05H5.1V16.65H6V16.05H5.85ZM6.3 18.45V19.05H7.05V18.45H6.3ZM5.85 17.7H5.1V18.3H6V17.7H5.85ZM6.3 20.1V20.7H7.05V20.1H6.3ZM5.85 19.2H5.1V19.8H6V19.2H5.85ZM6.3 21.6V22.35H7.05V21.6H6.3ZM5.85 21H5.1V21.45H6V21H5.85ZM6.3 23.25V23.85H7.05V23.25H6.3ZM5.85 22.5H5.1V23.1H6V22.5H5.85ZM6.3 24.9V25.5H7.05V24.9H6.3ZM5.85 24H5.1V24.75H6V24H5.85ZM6.3 26.55V27.15H7.05V26.55H6.3ZM5.85 25.65H5.1V26.25H6V25.65H5.85ZM6.3 28.2V28.5L6.6 28.8H7.05V28.2H6.3ZM5.7 27.9V27.3H5.25C5.25 27.6 5.55 27.75 5.7 27.9ZM3.9 10.5V10.8H4.5V10.5H3.9ZM3.9 12V12.6H4.5V12H3.9ZM2.7 11.7H3.3V11.1H3L2.7 11.7ZM3.9 13.5V14.25H4.5V13.5H3.9ZM2.1 13.95L1.95 14.25H2.1V13.5V13.8V13.95ZM3.3 12.75H2.7V13.5H3.3V12.9V12.75ZM3.9 15.15V15.9H4.5V15H3.9V15.15ZM3.3 14.4H2.7V15H3.3V14.4ZM3.9 16.8V17.4H4.5V16.8H3.9ZM3.3 16.05H2.7V16.65H3.3V16.05ZM3.9 18.45V19.05H4.5V18.45H3.9ZM3.3 17.7H2.7V18.3H3.3V17.7ZM3.9 20.1V20.7H4.5V20.1H3.9ZM3.3 19.2H2.7V19.8H3.3V19.2ZM3.9 21.6V22.35H4.5V21.6H3.9ZM3.3 21H2.7V21.45H3.3V21ZM3.9 23.25V23.85H4.5V23.25H3.9ZM3.3 22.5H2.7V23.1H3.3V22.5ZM3.9 24.9V25.5H4.5V24.9H3.9ZM3.3 24.6V24H3.15L3.3 24.45V24.6ZM1.8 15.15V15.9H2.1V15H1.8V15.15ZM1.5 16.8V17.4H2.1V16.8H1.65H1.5ZM1.65 18.45V19.05H2.1V18.45H1.65ZM1.8 20.1V20.7H2.1V20.1H1.8Z" fill="#FFFEF4"/>
<path d="M25.0501 6C26.6005 8.68734 27.2001 11.8187 26.7522 14.8888C26.3043 17.9588 24.8349 20.7883 22.5813 22.9206C20.3276 25.0529 17.4212 26.3636 14.3311 26.6411C11.241 26.9185 8.14754 26.1467 5.55005 24.45C6.59194 26.2559 8.02946 27.8022 9.75466 28.9729C11.4799 30.1435 13.4479 30.908 15.5109 31.2091C17.5739 31.5101 19.6784 31.3397 21.6661 30.7108C23.6539 30.0819 25.4733 29.0108 26.9878 27.5779C28.5022 26.145 29.6723 24.3876 30.4102 22.4376C31.148 20.4877 31.4345 18.3959 31.248 16.3194C31.0615 14.2428 30.407 12.2355 29.3335 10.4483C28.26 8.66098 26.7956 7.14015 25.0501 6Z" fill="#FFFEF4"/>
<path d="M16.05 7.8V6L16.2 5.55V1.65L16.35 0.9V-0.6C16.5 -0.75 16.35 -0.9 16.35 -1.2C16.65 -1.95 16.5 -2.25 16.5 -3V-3.6L16.65 -4.5V-6H16.95V-5.7L17.1 -5.1V-2.1V-1.8C17.1 -1.8 17.25 -1.65 17.1 -1.5L17.25 -0.6V1.5L17.4 2.4V4.05C17.4 4.2 17.55 4.5 17.4 4.65L17.55 6.15V8.25C17.5995 8.60008 17.6495 8.95008 17.7 9.3C17.7 9.9 17.7 10.5 18 10.8L18.75 12.6L19.5 13.65L20.4 14.7L21.3 15.45L22.35 16.05L23.4 16.5L24.15 16.65C24.75 16.95 25.35 16.95 26.1 17.1H31.2L33.75 17.4H37.5L38.4 17.55H39.3C39.45 17.55 39.6 17.55 39.6 17.85L39.45 18H37.8L37.2 18.15H34.5C34.2 18.3 34.05 18.3 33.9 18.15H33.75L32.25 18.3L30 18.45H27C27 18.45 26.85 18.6 26.7 18.45L25.35 18.6C25.05 18.75 24.45 18.6 24 18.9L23.25 19.2L22.5 19.5L21.75 19.95L20.7 20.85L20.4 21.15C20.2022 21.3029 20.0022 21.4529 19.8 21.6L19.05 22.8L18.45 24L18 25.5L17.85 26.7V30L17.55 31.8V47.4L17.4 47.55V52.5L17.25 53.55V56.55C17.1497 56.1501 17.0497 55.7501 16.95 55.35L16.8 55.05V50.25L16.65 49.8V39.3C16.65 39.3 16.5 39.3 16.65 39.15C16.65 38.7 16.5 38.4 16.65 37.95L16.5 37.05V31.5L16.35 30V27L16.2 25.95L16.05 25.2L15.75 24.3V24L15.45 23.55L15.15 22.95C15.15 22.65 14.85 22.5 14.7 22.2C14.5122 21.8921 14.312 21.5919 14.1 21.3L13.5 20.7H13.2C13.05 20.25 12.6 20.1 12.3 19.8L11.4 19.35L10.8 19.05L10.2 18.75L9.00005 18.6L7.80005 18.45H4.95005L4.80005 18.3H1.50005L1.20005 18H-0.299951L-1.34995 17.85H-3.29995L-3.44995 17.55V17.4L-3.14995 17.25H4.87566e-05L0.900049 17.1H2.85005L3.75005 16.95H4.65005L5.25005 16.8H7.95005L9.00005 16.65L9.90005 16.35H10.35L10.8 16.05L11.55 15.75L12.75 15L13.5 14.25L14.7 12.75L15.45 11.25L15.9 10.05L16.05 8.7V7.65V7.8Z" fill="#FFFEF4"/>
</g>
<defs>
<clipPath id="clip0_2_20">
<rect width="36" height="36" fill="white"/>
</clipPath>
</defs>
</svg>
