<svg width="36" height="32" viewBox="0 0 36 32" fill="none" xmlns="http://www.w3.org/2000/svg">
<path fill-rule="evenodd" clip-rule="evenodd" d="M2.67357 0H11.1244C12.0581 0 12.6085 1.05065 12.0785 1.82128L3.04255 14.9708C2.61649 15.5912 2.61649 16.4099 3.04255 17.0292L12.0785 30.1787C12.6085 30.9494 12.0581 32 11.1244 32H2.67357C1.19766 32 0 30.8001 0 29.3192V16V2.6808C0 1.20089 1.19766 0 2.67357 0ZM21.4661 1.26222L5.13403 15.0342C4.53573 15.5381 4.53573 16.461 5.13403 16.9658L21.4661 30.7378C22.4322 31.5533 23.6554 32 24.9183 32H33.3264C34.8033 32 36 30.7992 36 29.3192V16V2.6808C36 1.20089 34.8033 0 33.3264 0H24.9183C23.6544 0 22.4322 0.446631 21.4661 1.26222ZM10.3839 16.9324C10.3773 17.0246 10.3773 17.11 10.3773 17.1495C10.3773 17.6692 10.5151 18.0048 10.7841 18.1362C11.1712 18.3337 11.5058 18.3665 13.0213 18.3665C13.9725 18.3665 14.622 18.3271 14.9501 18.2547C15.5929 18.1165 15.8292 17.7612 15.8292 16.9522C15.8292 16.0707 15.5012 15.7023 14.668 15.6628C14.4449 15.6497 13.8545 15.6299 13.7364 15.6299H12.4964C12.0634 15.6234 12.0372 15.6168 11.9585 15.5971C11.7682 15.551 11.6763 15.4325 11.6763 15.2484C11.6763 14.9984 11.7944 14.9063 12.1487 14.88C12.3586 14.8668 12.9294 14.8537 13.3559 14.8537C14.2153 14.8537 14.3465 14.9063 14.3465 15.2878H15.6454C15.6454 14.63 15.547 14.3603 15.2452 14.1564C14.9304 13.9525 14.5761 13.913 13.0409 13.913C12.0831 13.913 11.5714 13.9459 11.2171 14.038C10.5873 14.1893 10.3642 14.5248 10.3642 15.3142C10.3642 15.9128 10.5086 16.2614 10.8235 16.4259C11.1056 16.5706 11.4402 16.6167 12.2471 16.6167H13.4543C14.0161 16.6221 14.1197 16.623 14.2171 16.6482C14.2391 16.6538 14.2608 16.6609 14.2875 16.6693C14.4252 16.7153 14.5105 16.8469 14.5105 17.0246C14.5105 17.3863 14.3268 17.4325 12.7851 17.4325C12.3652 17.4325 11.9912 17.4061 11.8928 17.3666C11.7354 17.3075 11.7026 17.235 11.6895 16.9324H10.3839ZM16.3973 18.3337H17.7225V16.8074H20.8716V15.8141H17.7225V14.9392H21.0422V13.9459H16.3973V18.3337ZM21.644 18.3337H25.6C26.0658 18.3337 26.2626 18.3205 26.5119 18.2678C26.9909 18.1758 27.3582 17.7679 27.4303 17.2416C27.4698 16.9916 27.496 16.5377 27.496 16.143C27.496 15.9325 27.4828 15.6299 27.4698 15.4261C27.4237 14.8668 27.3253 14.5905 27.0826 14.3537C26.7808 14.0511 26.348 13.9459 25.4229 13.9459H21.644V18.3337ZM22.9758 17.2876V15.0379H25.2325C26.0002 15.0379 26.1576 15.2287 26.1576 16.1497C26.1576 16.9062 26.0724 17.1363 25.7508 17.235C25.5935 17.2876 25.5672 17.2876 25.2063 17.2876H22.9758ZM28.0913 18.3337H29.4165V17.2285H31.4568C31.8177 17.2285 31.9227 17.2416 32.0275 17.3139C32.1457 17.3995 32.1916 17.5376 32.1916 17.7876V18.3337H33.5432V17.6429C33.5432 17.2679 33.4906 17.0706 33.3594 16.9193C33.2281 16.7614 33.0576 16.7087 32.5984 16.6824C32.5732 16.6824 32.5174 16.6786 32.4484 16.6738L32.3819 16.6693C32.9724 16.5837 33.1758 16.518 33.3265 16.3601C33.5169 16.1561 33.6021 15.8404 33.6021 15.3668C33.6021 14.6826 33.4251 14.2814 33.0445 14.1037C32.7886 13.9853 32.4934 13.9459 31.8636 13.9459H28.0913V18.3337ZM29.4165 16.1561V15.0247H31.5421C31.9423 15.0247 32.0538 15.0445 32.1522 15.1498C32.2375 15.2418 32.2638 15.3602 32.2638 15.6431C32.2638 16.0773 32.1391 16.1561 31.4962 16.1561H29.4165Z" fill="#FFFEF4"/>
</svg>
